<svg xmlns="http://www.w3.org/2000/svg" width="24" height="24"
     viewBox="0 0 24 24" fill="none">
    <g clip-path="url(#clip0_1078_46)">
        <path d="M4 20.6667H21.3333C22.0406 20.6667 22.7189 20.3857 23.219 19.8856C23.719 19.3855 24 18.7073 24 18V15.3333H4V20.6667Z"
              fill="#4AA657"/>
        <path d="M21.3333 3.33334H4V15.3333H24V6.00001C24 5.29277 23.719 4.61449 23.219 4.11439C22.7189 3.61429 22.0406 3.33334 21.3333 3.33334Z"
              fill="#C8313E"/>
        <path d="M2.66667 3.33334C1.95942 3.33334 1.28115 3.61429 0.781049 4.11439C0.280952 4.61449 0 5.29277 0 6.00001L0 18C0 18.7073 0.280952 19.3855 0.781049 19.8856C1.28115 20.3857 1.95942 20.6667 2.66667 20.6667H4V3.33334H2.66667Z"
              fill="white"/>
        <path d="M0.510729 19.4587L0.927396 18.7193L1.35473 19.48L0.993396 20.0607C1.10707 20.1534 1.22839 20.2364 1.35606 20.3087L1.88406 19.3507L0.937396 17.8333L0.192729 18.984C0.314729 19.2907 0.493396 19.5653 0.713396 19.804L0.510729 19.4587ZM3.9874 19.398L2.9894 17.9167L1.98806 19.364L2.8454 20.6667H3.27673L3.9874 19.398ZM3.01873 18.7187L3.44606 19.4793L3.01873 20.1667L2.60206 19.4587L3.01873 18.7187ZM4.00006 12.222V11.626L3.7914 11.9167L4.00006 12.222ZM1.8834 4.68401L1.2874 3.72801C0.765489 4.04525 0.368791 4.53259 0.164062 5.10801L1.02073 6.25001L1.8834 4.68401ZM0.510729 4.79201L0.927396 4.05268L1.35473 4.81334L0.927396 5.50001L0.510729 4.79201ZM3.07806 6.35401L3.9874 4.73068L3.04606 3.33334H2.93206L1.98873 4.69734L3.07806 6.35401ZM3.4454 4.81268L3.01873 5.50001L2.60206 4.79201L3.01873 4.05268L3.4454 4.81268Z"
              fill="#C8313E"/>
        <path d="M3.302 10L3.88533 9.03135L4 9.08202V8.66669L3.06267 7.20802L1.93733 8.77069L0.937333 7.16669L0 8.61535V9.04869L0.572667 10L0.978667 9.40602L0.687333 9.00002L0.906 8.70802L1.54133 9.53069L0.604 11.072L0 10.2407V11.276L0.0386667 11.2247L0.674 12.0474L0 13.1567V13.9414L0.604 13.1094L1.54133 14.6507L1.01467 15.3334L0.906 15.474L0.800667 15.3334L0.687333 15.182L0.979333 14.776L0.573333 14.182L0 15.134V15.5174L0.958667 16.9794L1.892 15.3334L1.92733 15.2707L1.966 15.3334L3.042 17.0727L4 15.3747V15.114L3.91667 15.1514L3.33333 14.182L2.92667 14.776L3.21867 15.182L3.10533 15.3334L3 15.474L2.89133 15.3334L2.36467 14.6514L3.302 13.11L4 14.0707V13.3094L3.22867 12.0414L3.864 11.2187L4 11.4V10.0687L3.27067 11.0734L2.33333 9.53135L2.96867 8.70869L3.18733 9.00002L2.89533 9.40602L3.302 10ZM2.85667 11.354V12.6394L1.92667 14.108L1.05067 12.6334V11.3614L1.92667 9.88602L2.85667 11.354Z"
              fill="#C8313E"/>
        <path d="M1.354 11.2153L1.75267 11.9427L1.354 12.67L1.646 12.83L1.94267 12.2893L2.23933 12.83L2.53133 12.67L2.13267 11.9427L2.53133 11.2153L2.23933 11.0553L1.94267 11.596L1.646 11.0553L1.354 11.2153ZM0.017334 17.4587L0.434001 18.1667L0.861334 17.4793L0.434001 16.7187L0.017334 17.4587ZM1.028 17.4587L1.44467 18.1667L1.87133 17.4793L1.44467 16.7187L1.028 17.4587ZM2.01733 17.4587L2.434 18.1667L2.86133 17.4793L2.434 16.7187L2.01733 17.4587ZM3.07867 17.4587L3.49533 18.1667L3.922 17.4793L3.49533 16.7187L3.07867 17.4587ZM0.017334 6.75001L0.434001 7.45868L0.861334 6.77068L0.434001 6.01068L0.017334 6.75001ZM1.028 6.75001L1.44467 7.45868L1.87133 6.77068L1.44467 6.01068L1.028 6.75001ZM2.01733 6.75001L2.434 7.45868L2.86133 6.77068L2.434 6.01068L2.01733 6.75001ZM3.07867 6.75001L3.49533 7.45868L3.922 6.77068L3.49533 6.01068L3.07867 6.75001Z"
              fill="#C8313E"/>
    </g>
    <defs>
        <clipPath id="clip0_1078_46">
            <rect width="24" height="24" fill="white"/>
        </clipPath>
    </defs>
</svg>
