<svg xmlns="http://www.w3.org/2000/svg" width="24" height="24"
     viewBox="0 0 24 24" fill="none">
    <path d="M24 18C24 18.7073 23.719 19.3855 23.219 19.8856C22.7189 20.3857 22.0406 20.6667 21.3333 20.6667H2.66667C1.95942 20.6667 1.28115 20.3857 0.781049 19.8856C0.280952 19.3855 0 18.7073 0 18V6.00001C0 5.29277 0.280952 4.61449 0.781049 4.11439C1.28115 3.61429 1.95942 3.33334 2.66667 3.33334H21.3333C22.0406 3.33334 22.7189 3.61429 23.219 4.11439C23.719 4.61449 24 5.29277 24 6.00001V18Z"
          fill="#75AADB"/>
    <path d="M0 8.66666H24V15.3333H0V8.66666Z" fill="#EEEEEE"/>
    <path d="M12.0001 8.66666L12.3254 10.3653L13.2761 8.92066L12.9261 10.614L14.3567 9.64266L13.3854 11.074L15.0794 10.7247L13.6347 11.6747L15.3334 12L13.6347 12.3253L15.0794 13.276L13.3854 12.926L14.3567 14.3567L12.9261 13.3853L13.2761 15.0793L12.3254 13.6347L12.0001 15.3333L11.6747 13.6347L10.7247 15.0793L11.0741 13.3853L9.64275 14.3567L10.6141 12.926L8.92075 13.276L10.3654 12.3253L8.66675 12L10.3654 11.6747L8.92075 10.7247L10.6141 11.074L9.64275 9.64266L11.0741 10.614L10.7247 8.92066L11.6747 10.3653L12.0001 8.66666Z"
          fill="#FCBF49"/>
    <path d="M12.0001 9.55332L12.1614 10.3967L12.2387 10.8L12.4647 10.4573L12.9367 9.73999L12.7627 10.5807L12.6794 10.9833L13.0194 10.7527L13.7301 10.2707L13.2481 10.9813L13.0174 11.3213L13.4194 11.238L14.2607 11.0647L13.5434 11.5367L13.2001 11.7613L13.6034 11.8387L14.4467 12L13.6034 12.1613L13.2001 12.2387L13.5427 12.4647L14.2601 12.9367L13.4187 12.7627L13.0161 12.6793L13.2467 13.0193L13.7287 13.7293L13.0187 13.2473L12.6787 13.0167L12.7621 13.4193L12.9361 14.2607L12.4641 13.5433L12.2387 13.2L12.1614 13.6033L12.0001 14.4467L11.8387 13.6033L11.7614 13.2L11.5354 13.5433L11.0634 14.2607L11.2367 13.4193L11.3201 13.0173L10.9801 13.248L10.2694 13.73L10.7514 13.0193L10.9821 12.6793L10.5794 12.7627L9.73875 12.9367L10.4561 12.4647L10.7987 12.2387L10.3954 12.1613L9.55341 12L10.3967 11.8387L10.8001 11.7613L10.4567 11.5353L9.73941 11.0633L10.5801 11.2367L10.9821 11.32L10.7514 10.98L10.2687 10.2693L10.9794 10.752L11.3194 10.9827L11.2361 10.5807L11.0627 9.73999L11.5347 10.4573L11.7607 10.8007L11.8381 10.3973L12.0001 9.55332ZM12.0001 8.66666L11.6747 10.3653L10.7247 8.92066L11.0741 10.6147L9.64275 9.64332L10.6141 11.0747L8.92075 10.7253L10.3654 11.6753L8.66675 12L10.3654 12.3253L8.92075 13.276L10.6141 12.926L9.64275 14.3567L11.0741 13.3853L10.7247 15.0793L11.6747 13.6347L12.0001 15.3333L12.3254 13.6347L13.2761 15.0793L12.9261 13.3853L14.3567 14.3567L13.3854 12.926L15.0794 13.276L13.6347 12.3253L15.3334 12L13.6347 11.6747L15.0794 10.7247L13.3854 11.074L14.3567 9.64266L12.9261 10.614L13.2761 8.91999L12.3254 10.3647L12.0001 8.66666Z"
          fill="#843511"/>
    <path d="M12.0001 13.3333C12.7365 13.3333 13.3334 12.7364 13.3334 12C13.3334 11.2636 12.7365 10.6667 12.0001 10.6667C11.2637 10.6667 10.6667 11.2636 10.6667 12C10.6667 12.7364 11.2637 13.3333 12.0001 13.3333Z"
          fill="#FCBF49"/>
    <path d="M11.9999 13.4167C11.2186 13.4167 10.5833 12.7813 10.5833 12C10.5833 11.2187 11.2186 10.5833 11.9999 10.5833C12.7813 10.5833 13.4166 11.2187 13.4166 12C13.4166 12.7813 12.7813 13.4167 11.9999 13.4167ZM11.9999 10.75C11.3106 10.75 10.7499 11.3107 10.7499 12C10.7499 12.6893 11.3106 13.25 11.9999 13.25C12.6893 13.25 13.2499 12.6893 13.2499 12C13.2499 11.3107 12.6893 10.75 11.9999 10.75Z"
          fill="#843511"/>
    <path d="M11.8674 11.8493C11.8674 11.9527 11.6934 12.036 11.4787 12.036C11.2634 12.036 11.0894 11.9527 11.0894 11.8493C11.0894 11.746 11.2634 11.6627 11.4787 11.6627C11.6934 11.6627 11.8674 11.746 11.8674 11.8493ZM12.9027 11.8333C12.9027 11.726 12.7254 11.6387 12.5067 11.6387C12.288 11.6387 12.1107 11.7253 12.1107 11.8333C12.1107 11.9413 12.288 12.028 12.5067 12.028C12.726 12.028 12.9027 11.9407 12.9027 11.8333Z"
          fill="#C16540"/>
    <path d="M11.6421 12.5827C11.6421 12.4987 11.8061 12.43 12.0074 12.43C12.2094 12.43 12.3728 12.498 12.3728 12.5827C12.3728 12.6667 12.2088 12.7353 12.0074 12.7353C11.8054 12.7353 11.6421 12.6667 11.6421 12.5827Z"
          fill="#ED8662"/>
</svg>
