<svg xmlns="http://www.w3.org/2000/svg" width="24" height="24"
     viewBox="0 0 24 24" fill="none">
    <path d="M24 18C24 18.7073 23.719 19.3855 23.219 19.8856C22.7189 20.3857 22.0406 20.6667 21.3333 20.6667H2.66667C1.95942 20.6667 1.28115 20.3857 0.781049 19.8856C0.280952 19.3855 0 18.7073 0 18V6.00001C0 5.29277 0.280952 4.61449 0.781049 4.11439C1.28115 3.61429 1.95942 3.33334 2.66667 3.33334H21.3333C22.0406 3.33334 22.7189 3.61429 23.219 4.11439C23.719 4.61449 24 5.29277 24 6.00001V18Z"
          fill="#DE2910"/>
    <path d="M7.424 5.98467L7.91466 6.222L8.30733 5.84467L8.23333 6.38467L8.71333 6.642L8.17733 6.738L8.08133 7.274L7.824 6.794L7.284 6.868L7.66133 6.47533L7.424 5.98467ZM10.534 7.94533L10.2967 8.43533L10.674 8.82867L10.1347 8.754L9.87733 9.23467L9.78133 8.698L9.24466 8.602L9.72533 8.34467L9.65066 7.80533L10.044 8.18267L10.534 7.94533ZM9.896 10.4647L10.0747 10.9793L10.6193 10.9907L10.1853 11.3193L10.3433 11.8413L9.896 11.53L9.44866 11.8413L9.606 11.3193L9.172 10.9907L9.71666 10.9793L9.896 10.4647ZM7.424 12.6513L7.91466 12.8887L8.30733 12.5113L8.23333 13.0513L8.71333 13.3087L8.17733 13.4047L8.08133 13.9407L7.824 13.4607L7.284 13.5347L7.66133 13.142L7.424 12.6513ZM4.66666 7.30067L5.286 9.08133L7.17 9.12L5.668 10.2587L6.214 12.0627L4.66666 10.986L3.11933 12.0627L3.66533 10.2587L2.16333 9.12L4.04733 9.08133L4.66666 7.30067Z"
          fill="#FFDE02"/>
</svg>
