<svg xmlns="http://www.w3.org/2000/svg" width="24" height="24"
     viewBox="0 0 24 24" fill="none">
    <g clip-path="url(#clip0_1078_14)">
        <path d="M24 18C24 18.7072 23.719 19.3855 23.219 19.8856C22.7189 20.3857 22.0406 20.6667 21.3333 20.6667H2.66667C1.95942 20.6667 1.28115 20.3857 0.781049 19.8856C0.280952 19.3855 0 18.7072 0 18V15.3333H24V18Z"
              fill="#CE2028"/>
        <path d="M0 8.66667H24V15.3333H0V8.66667Z" fill="#22408C"/>
        <path d="M21.3333 3.33333H2.66667C1.95942 3.33333 1.28115 3.61428 0.781049 4.11438C0.280952 4.61447 0 5.29275 0 5.99999L0 8.66666H24V5.99999C24 5.29275 23.719 4.61447 23.219 4.11438C22.7189 3.61428 22.0406 3.33333 21.3333 3.33333Z"
              fill="#EEEEEE"/>
    </g>
    <defs>
        <clipPath id="clip0_1078_14">
            <rect width="24" height="24" fill="white"/>
        </clipPath>
    </defs>
</svg>
